<svg xmlns="http://www.w3.org/2000/svg" width="86" height="78" viewBox="0 0 86 78" fill="none">
<path d="M63.6632 24.381C66.1013 23.9456 70.0197 23.9021 75.2007 25.6871C75.3313 18.9824 72.6755 16.0653 66.2755 13.4096L39.8047 0.0870819L39.8482 10.2313C39.8482 11.3633 40.5013 12.3647 41.5026 12.8436L60.8768 22.03C62.0088 22.5524 62.9666 23.3796 63.6632 24.381Z" fill="#022C59"/>
<path d="M65.0999 46.7593C65.0999 47.8477 65.0999 48.9362 65.1435 50.0246C65.187 54.2477 63.6196 57.0341 59.9625 58.9933C58.4387 59.8205 57.8292 60.1253 56.7407 60.6913C53.7802 63.1729 46.0305 70.0519 44.5938 77.2791C53.3013 72.7512 64.4904 68.2668 71.4999 63.9566C73.1108 62.9552 74.1122 61.562 74.6346 59.9076C74.3299 55.8151 72.7625 47.1076 65.0999 46.7593Z" fill="#022C59"/>
<path d="M34.2318 0C30.0957 2.39456 23.9569 5.70341 17.9487 8.92519C19.1678 9.09934 20.3433 9.53471 21.7365 10.2313C24.2617 11.4504 27.2658 13.9755 28.5719 15.1075C30.2263 14.1497 31.6195 13.3225 32.4903 12.8C33.2304 12.3647 34.0576 11.4068 34.1011 10.6232C34.3188 7.3143 34.2318 3.96191 34.2318 0Z" fill="#022C59"/>
<path d="M9.76377 52.5933C9.76377 45.3225 10.1121 38.0953 10.025 30.8246C9.98146 27.8205 10.8522 25.9484 12.6808 24.4245C12.5066 23.6844 12.2889 22.9878 12.2019 22.1606C12.1583 21.6381 11.81 21.3334 11.2005 21.3334C10.4168 21.3334 9.58962 21.5946 8.2835 23.0749L7.67397 23.815L7.02091 22.8137C6.93383 22.683 4.88757 19.5048 6.58553 15.8041C6.71614 15.4993 6.97737 15.151 7.28213 14.8027C5.88893 15.5864 4.62634 16.3701 3.53791 17.0232C1.14334 18.5034 0.0113686 21.2028 0.0549062 24.2939C0.141981 34.3946 0.272594 44.4953 0.0113693 54.5525C-0.162781 61.0396 1.62226 64.2614 8.23996 67.1784C8.41411 67.2654 8.58826 67.3525 8.76241 67.4396L30.0958 77.192L12.2889 62.9552C9.06717 60.6913 9.76377 54.2477 9.76377 52.5933Z" fill="#022C59"/>
<path d="M8.58832 19.3742C8.58832 19.3742 8.24002 16.2395 11.2006 15.3687C11.2006 15.3687 11.2441 15.717 12.5502 15.717C13.8564 15.717 12.8115 16.5442 12.8115 17.0667C12.8115 17.6327 12.8115 17.6327 12.8115 17.6327C12.8115 17.6327 12.7244 18.5034 11.8101 18.1116C10.1121 17.415 8.58832 19.3742 8.58832 19.3742Z" fill="#FF5614"/>
<path d="M12.7243 16.0218C12.7243 16.0218 12.1583 16.849 11.0699 16.8055C9.98144 16.7619 9.02362 17.6327 8.58824 19.3742C8.58824 19.3742 8.45763 17.8939 9.2413 16.7619C10.025 15.63 11.9842 14.9334 11.9842 14.9334L12.7243 16.0218Z" fill="#F64A24"/>
<path d="M56.1745 31.913C50.6888 36.0491 47.1187 41.9266 44.8112 48.0654C41.9813 47.4123 31.5323 44.4953 31.75 38.0518C31.8806 34.3075 31.4888 33.9157 30.9228 31.3035C30.9228 30.8245 30.8792 29.9538 30.7486 28.9089C30.7051 26.6885 30.4874 23.8585 27.3962 19.3306C26.0466 17.1973 24.218 15.2381 21.6928 14.0626C21.6928 14.0626 24.8275 17.2844 23.3472 19.6354C21.867 21.9864 20.3432 22.2477 18.384 24.8599C16.4683 27.4722 14.6833 31.7824 15.1187 37.5729C15.3363 40.4463 15.3363 43.494 15.2057 46.1497C13.4642 51.8096 13.4207 56.0763 15.7717 59.211C19.7336 64.479 23.9132 66.9607 28.833 71.0967C34.5364 75.9729 38.8901 77.2355 38.8901 77.2355H40.8058C42.4602 65.8722 56.7841 57.0341 56.7841 57.0341C56.7841 57.0341 50.9065 58.2096 51.4725 56.294C52.5174 52.8981 62.4439 50.5906 62.4439 50.5906C62.4439 50.5906 53.2575 44.8872 64.5337 44.0599C81.7311 42.7538 76.8113 68.3974 76.8113 68.3974C76.8113 68.3974 84.1256 63.3471 85.4317 51.0695C87.1297 35.4395 72.1963 19.8096 56.1745 31.913Z" fill="url(#paint0_linear_711_2139)"/>
<path d="M28.5717 21.1157C28.5717 21.1157 29.8778 29.9973 24.871 38.4001C19.69 47.064 23.5213 60.6478 38.8465 59.8641C38.8465 59.8641 26.4819 54.7266 28.5717 43.494C30.3567 34.0899 32.1853 25.9048 28.5717 21.1157Z" fill="#E00A12"/>
<path d="M11.1133 15.3252C11.1133 15.3252 11.418 15.1946 11.984 14.8898C12.7242 14.498 13.3337 13.6708 14.2044 13.6272C15.0752 13.5837 16.033 12.1905 17.165 12.1034C18.297 12.0164 20.2562 12.1034 21.9106 14.0626C23.7827 16.283 24.3487 18.1987 23.7392 19.3307C23.1296 20.4626 21.867 21.9429 20.1691 23.0749C18.4711 24.2069 16.9473 27.6463 16.9473 27.6463C16.9473 27.6463 17.0344 26.079 16.033 24.8164C15.0317 23.5538 14.9446 23.6409 15.0317 22.5524C15.1187 21.5075 14.814 19.8966 14.1609 19.4177C13.5078 18.9824 12.55 18.7211 12.0276 17.5892C11.5051 16.4572 11.1133 15.3252 11.1133 15.3252Z" fill="#FF2C00"/>
<path d="M18.0794 25.5565C18.0794 25.5565 16.2508 30.781 16.7297 35.6137C16.7733 35.9184 16.8168 36.2232 16.8603 36.528C17.6876 41.5783 19.4726 40.2287 18.6889 49.3715C17.6876 61.0831 34.406 74.1879 43.3747 70.4002C43.3747 70.4002 41.1543 74.5798 41.0237 77.9321L38.6291 77.192C38.6291 77.192 34.7107 75.7117 28.9202 71.0532C23.1297 66.3947 23.1297 66.3947 23.1297 66.3947C23.1297 66.3947 14.5964 60.5607 14.0304 54.9443C13.508 49.328 15.3365 46.977 15.3365 44.2341C15.3365 41.5348 15.3365 41.5348 15.3365 41.5348C15.3365 41.5348 13.3773 30.3892 18.0794 25.5565Z" fill="#E00A12"/>
<path d="M39.6303 46.3674C39.6303 46.3674 29.3555 60.7784 48.2072 64.0437C48.2072 64.0437 52.1691 59.6464 56.8276 56.9471C56.8276 56.9471 52.0385 58.1226 51.4725 56.5117C50.9065 54.8573 57.7855 51.3307 62.4875 50.5035C62.4875 50.5035 58.1338 48.3702 59.0481 45.9321C59.9623 43.494 69.41 42.362 73.2848 46.7157C77.1597 51.0695 78.2481 57.8178 76.8549 68.2668C76.8549 68.2668 81.8617 50.2423 76.5501 42.1443C71.2386 34.0463 63.3147 37.4423 61.2685 38.8355C52.7351 44.6259 49.4263 57.0341 44.6807 56.5117C39.9351 55.9457 39.6303 46.3674 39.6303 46.3674Z" fill="#E00A12"/>
<path d="M39.4126 46.3239C39.4126 46.3239 43.331 55.0314 47.6847 49.1974C53.3011 41.6654 59.2222 28.9525 72.7188 34.1334C83.7773 38.3566 82.863 57.2083 76.8984 68.2668C76.8984 68.2668 83.429 64.3049 85.3447 52.3756C87.2603 40.4464 81.4698 33.1321 75.4617 29.6926C69.5841 26.3402 60.7895 25.8613 52.2997 35.396C42.9827 45.8015 47.6847 49.1539 39.4126 46.3239Z" fill="#FF0C22"/>
<path d="M15.2495 15.9783C15.2495 15.9783 15.5543 15.1511 16.2509 14.8028C16.991 14.4545 17.8618 14.2368 18.4713 15.0205C19.0808 15.8041 16.4686 16.762 15.2495 15.9783Z" fill="white"/>
<path d="M15.1623 16.1524C14.6398 14.7592 17.6875 14.1062 17.6875 14.1062L18.863 14.498C18.863 14.498 18.1228 14.4545 16.8603 14.8898C15.7718 15.2381 15.38 15.9347 15.38 15.9347L15.1623 16.1524Z" fill="#012444"/>
<path d="M49.165 23.4232C48.7732 23.1619 48.3378 23.0313 47.9024 22.9878C47.3364 22.9007 46.814 22.9878 46.2915 23.2055L46.1174 23.2926L45.8126 23.249C44.8983 23.1184 43.9405 22.8136 43.1133 22.2912C42.1119 21.6817 41.3282 20.8545 40.8058 19.8966L40.7187 19.766V19.5919C40.6316 18.634 40.1092 17.7633 39.282 17.2844C38.8901 17.0232 38.4548 16.8925 38.0194 16.849C36.8439 16.7184 35.6248 17.2844 35.0153 18.2857C34.5799 18.9823 34.4493 19.8096 34.6235 20.6368C34.7976 21.464 35.3201 22.117 36.0167 22.5524C36.4085 22.8136 36.8439 22.9443 37.2793 22.9878C37.9323 23.0749 38.5854 22.9443 39.1514 22.6395L39.3691 22.5089L39.6303 22.5524C40.501 22.683 41.2847 23.0313 42.0684 23.4667C43.0697 24.0762 43.897 24.947 44.4194 25.9048L44.5065 26.0354V26.2096C44.5065 26.3402 44.55 26.4708 44.5936 26.6014C44.1582 27.3415 43.5487 28.0381 42.8085 28.5606C41.9378 29.1701 40.9364 29.562 39.935 29.6926H39.8044L39.6738 29.649C38.8031 29.3878 37.9323 29.562 37.1922 30.0409C36.8439 30.3021 36.5827 30.6069 36.365 30.9552C35.8425 31.913 35.8861 33.132 36.5391 34.0028C36.9745 34.6123 37.6276 35.0041 38.3677 35.1348C38.5418 35.1783 38.7595 35.1783 38.9337 35.1783C39.282 35.5701 39.5432 36.049 39.7174 36.528C39.9786 37.2246 40.0221 37.9647 39.8915 38.6613V38.7484L39.848 38.8354C39.4561 39.3579 39.3691 40.0545 39.5867 40.664C39.6738 40.9252 39.848 41.1865 40.0221 41.4042C40.5446 41.9701 41.3718 42.1443 42.1119 41.8831C43.1568 41.5348 43.6793 40.4028 43.331 39.3579C43.2439 39.0967 43.0697 38.8354 42.8956 38.6178C42.6344 38.3565 42.3296 38.1824 42.0248 38.0953L41.8942 38.0518L41.7636 37.9212C41.3282 37.4858 41.0235 36.9633 40.8058 36.3538C40.5881 35.7443 40.5446 35.1348 40.6316 34.5688C40.9364 34.3511 41.1976 34.0463 41.4153 33.698C41.7201 33.1756 41.8507 32.566 41.7636 32.0001L41.7201 31.7388L41.8507 31.5211C42.2861 30.8681 42.8085 30.2586 43.5051 29.7796C44.3323 29.1701 45.2902 28.8218 46.248 28.6912C46.5963 28.8654 46.9446 28.996 47.2929 29.0395C48.4684 29.1701 49.6874 28.6041 50.297 27.6028C51.0371 26.2531 50.6017 24.3375 49.165 23.4232Z" fill="#E00A12"/>
<defs>
<linearGradient id="paint0_linear_711_2139" x1="61.3869" y1="21.5973" x2="31.5094" y2="73.3467" gradientUnits="userSpaceOnUse">
<stop stop-color="#EF4A4F"/>
<stop offset="0.148" stop-color="#EB1C22"/>
<stop offset="1" stop-color="#691E21"/>
</linearGradient>
</defs>
</svg>
